<?xml version="1.0" encoding="utf-8"?>
<!-- Generator: Adobe Illustrator 25.3.1, SVG Export Plug-In . SVG Version: 6.00 Build 0)  -->
<svg version="1.1" id="Ebene_1" xmlns="http://www.w3.org/2000/svg" xmlns:xlink="http://www.w3.org/1999/xlink" x="0px" y="0px"
	 viewBox="0 0 359.15 170.08" style="enable-background:new 0 0 359.15 170.08;" xml:space="preserve">
<style type="text/css">
	.st0{
		fill: grey;
	}
</style>
<g>
	<path class="st0" d="M305.04,85.47c0-9.98-1.76-17.4-5.28-22.26c-3.52-4.85-9.58-7.28-18.18-7.28c-8.6,0-14.66,2.43-18.18,7.28
		c-3.52,4.86-5.28,12.27-5.28,22.26c0,9.98,1.76,17.32,5.28,22.01c3.52,4.69,9.58,7.03,18.18,7.03c8.6,0,14.66-2.34,18.18-7.03
		C303.28,102.79,305.04,95.46,305.04,85.47 M269.93,85.51c0-6.85,0.83-11.83,2.5-14.94c1.66-3.11,4.71-4.66,9.15-4.66
		c4.44,0,7.49,1.55,9.15,4.66c1.66,3.11,2.5,8.09,2.5,14.94c0,6.85-0.82,11.73-2.45,14.65c-1.64,2.91-4.7,4.37-9.19,4.37
		c-4.49,0-7.56-1.46-9.19-4.37C270.75,97.24,269.93,92.36,269.93,85.51 M187.8,113.51h17.39l8.9-43.02l8.9,43.02h17.39l10.82-56.58
		h-12.07l-6.99,46.76h-1.25l-10.15-46.76h-13.31l-10.15,46.76h-1.25l-6.99-46.76h-12.07L187.8,113.51z M167.58,56.93H156.1v56.58
		h11.48V56.93z M124.98,84.72h-10.65V66.75h10.48c2.66,0,4.7,0.81,6.12,2.41c1.42,1.61,2.12,3.77,2.12,6.49c0,2.72-0.67,4.91-2,6.57
		C129.72,83.89,127.7,84.72,124.98,84.72 M125.4,94.54l6.57,18.97h12.56l-8.07-21.64c5.55-3.5,8.32-8.93,8.32-16.31
		c0-12.42-6.66-18.64-19.97-18.64h-21.97v56.58h11.48V94.54H125.4z M68.48,113.51V93.54h20.14v-9.98H68.48V66.91h24.63v-9.98H57
		v56.58H68.48z"/>
</g>
</svg>
