<?xml version="1.0" encoding="utf-8"?>
<svg version="1.1" id="Layer_1" xmlns="http://www.w3.org/2000/svg" xmlns:xlink="http://www.w3.org/1999/xlink" x="0px" y="0px"
	 viewBox="0 0 46 46" style="enable-background:new 0 0 46 46;" xml:space="preserve">
<g>
	<g>
		<path fill="#424242" d="M23,46C10.3,46,0,35.7,0,23S10.3,0,23,0s23,10.3,23,23S35.7,46,23,46z M23,4C12.5,4,4,12.5,4,23s8.5,19,19,19
			s19-8.5,19-19S33.5,4,23,4z"/>
	</g>
	<circle fill="#424242" cx="23" cy="16" r="6"/>
	<g>
		<path fill="#424242" d="M23,38c4.9,0,9.2-2.2,12-5.6C32.8,28,28.3,25,23,25s-9.8,3-12,7.4C13.8,35.8,18.1,38,23,38z"/>
	</g>
</g>
</svg>
